<mxfile host="app.diagrams.net" modified="2020-03-23T16:37:53.331Z" agent="Mozilla/5.0 (X11; Linux x86_64) AppleWebKit/537.36 (KHTML, like Gecko) Chrome/80.0.3987.149 Safari/537.36" etag="JOrA8IVItrqsu-Lyewgv" version="12.9.0" type="github">
  <diagram id="smVe7nufu9OyLg9eKaek" name="Page-1">
    <mxGraphModel dx="1718" dy="460" grid="1" gridSize="10" guides="1" tooltips="1" connect="1" arrows="1" fold="1" page="1" pageScale="1" pageWidth="850" pageHeight="1100" math="0" shadow="0">
      <root>
        <mxCell id="0" />
        <mxCell id="1" parent="0" />
        <mxCell id="RIX5nBND8osH3HIVmy9M-5" value="" style="edgeStyle=orthogonalEdgeStyle;rounded=0;orthogonalLoop=1;jettySize=auto;html=1;" parent="1" source="RIX5nBND8osH3HIVmy9M-2" target="RIX5nBND8osH3HIVmy9M-4" edge="1">
          <mxGeometry relative="1" as="geometry" />
        </mxCell>
        <mxCell id="RIX5nBND8osH3HIVmy9M-18" value="" style="edgeStyle=orthogonalEdgeStyle;rounded=0;orthogonalLoop=1;jettySize=auto;html=1;" parent="1" source="RIX5nBND8osH3HIVmy9M-2" target="RIX5nBND8osH3HIVmy9M-17" edge="1">
          <mxGeometry relative="1" as="geometry" />
        </mxCell>
        <mxCell id="RIX5nBND8osH3HIVmy9M-29" value="" style="edgeStyle=orthogonalEdgeStyle;rounded=0;orthogonalLoop=1;jettySize=auto;html=1;" parent="1" source="RIX5nBND8osH3HIVmy9M-2" target="RIX5nBND8osH3HIVmy9M-28" edge="1">
          <mxGeometry relative="1" as="geometry" />
        </mxCell>
        <mxCell id="RIX5nBND8osH3HIVmy9M-2" value="Генеральный директор&lt;br&gt;" style="rounded=1;whiteSpace=wrap;html=1;" parent="1" vertex="1">
          <mxGeometry x="270" y="180" width="120" height="60" as="geometry" />
        </mxCell>
        <mxCell id="RIX5nBND8osH3HIVmy9M-31" value="" style="edgeStyle=orthogonalEdgeStyle;rounded=0;orthogonalLoop=1;jettySize=auto;html=1;" parent="1" source="RIX5nBND8osH3HIVmy9M-28" target="RIX5nBND8osH3HIVmy9M-30" edge="1">
          <mxGeometry relative="1" as="geometry" />
        </mxCell>
        <mxCell id="RIX5nBND8osH3HIVmy9M-33" value="" style="edgeStyle=orthogonalEdgeStyle;rounded=0;orthogonalLoop=1;jettySize=auto;html=1;" parent="1" source="RIX5nBND8osH3HIVmy9M-28" target="RIX5nBND8osH3HIVmy9M-32" edge="1">
          <mxGeometry relative="1" as="geometry" />
        </mxCell>
        <mxCell id="RIX5nBND8osH3HIVmy9M-35" value="" style="edgeStyle=orthogonalEdgeStyle;rounded=0;orthogonalLoop=1;jettySize=auto;html=1;" parent="1" source="RIX5nBND8osH3HIVmy9M-28" target="RIX5nBND8osH3HIVmy9M-34" edge="1">
          <mxGeometry relative="1" as="geometry" />
        </mxCell>
        <mxCell id="RIX5nBND8osH3HIVmy9M-37" value="" style="edgeStyle=orthogonalEdgeStyle;rounded=0;orthogonalLoop=1;jettySize=auto;html=1;" parent="1" source="RIX5nBND8osH3HIVmy9M-28" target="RIX5nBND8osH3HIVmy9M-36" edge="1">
          <mxGeometry relative="1" as="geometry" />
        </mxCell>
        <mxCell id="RIX5nBND8osH3HIVmy9M-39" value="" style="edgeStyle=orthogonalEdgeStyle;rounded=0;orthogonalLoop=1;jettySize=auto;html=1;" parent="1" source="RIX5nBND8osH3HIVmy9M-28" target="RIX5nBND8osH3HIVmy9M-38" edge="1">
          <mxGeometry relative="1" as="geometry" />
        </mxCell>
        <mxCell id="RIX5nBND8osH3HIVmy9M-47" value="" style="edgeStyle=orthogonalEdgeStyle;rounded=0;orthogonalLoop=1;jettySize=auto;html=1;" parent="1" source="RIX5nBND8osH3HIVmy9M-28" target="RIX5nBND8osH3HIVmy9M-46" edge="1">
          <mxGeometry relative="1" as="geometry" />
        </mxCell>
        <mxCell id="RIX5nBND8osH3HIVmy9M-28" value="Технический директор" style="rounded=1;whiteSpace=wrap;html=1;" parent="1" vertex="1">
          <mxGeometry x="850" y="400" width="120" height="60" as="geometry" />
        </mxCell>
        <mxCell id="RIX5nBND8osH3HIVmy9M-46" value="Управляющий складом" style="rounded=1;whiteSpace=wrap;html=1;" parent="1" vertex="1">
          <mxGeometry x="850" y="500" width="120" height="60" as="geometry" />
        </mxCell>
        <mxCell id="RIX5nBND8osH3HIVmy9M-38" value="Управляющий IT-отделом" style="rounded=1;whiteSpace=wrap;html=1;" parent="1" vertex="1">
          <mxGeometry x="980" y="500" width="120" height="60" as="geometry" />
        </mxCell>
        <mxCell id="RIX5nBND8osH3HIVmy9M-36" value="Управляющий отделом санитарной обработки" style="rounded=1;whiteSpace=wrap;html=1;" parent="1" vertex="1">
          <mxGeometry x="1120" y="500" width="120" height="60" as="geometry" />
        </mxCell>
        <mxCell id="RIX5nBND8osH3HIVmy9M-34" value="Управляющий отделом контроля качества" style="rounded=1;whiteSpace=wrap;html=1;" parent="1" vertex="1">
          <mxGeometry x="1270" y="500" width="120" height="60" as="geometry" />
        </mxCell>
        <mxCell id="RIX5nBND8osH3HIVmy9M-32" value="Управляющий отделом безопасности" style="rounded=1;whiteSpace=wrap;html=1;" parent="1" vertex="1">
          <mxGeometry x="700" y="500" width="120" height="60" as="geometry" />
        </mxCell>
        <mxCell id="RIX5nBND8osH3HIVmy9M-41" value="" style="edgeStyle=orthogonalEdgeStyle;rounded=0;orthogonalLoop=1;jettySize=auto;html=1;" parent="1" source="RIX5nBND8osH3HIVmy9M-30" target="RIX5nBND8osH3HIVmy9M-40" edge="1">
          <mxGeometry relative="1" as="geometry">
            <Array as="points">
              <mxPoint x="610" y="590" />
              <mxPoint x="480" y="590" />
            </Array>
          </mxGeometry>
        </mxCell>
        <mxCell id="RIX5nBND8osH3HIVmy9M-43" value="" style="edgeStyle=orthogonalEdgeStyle;rounded=0;orthogonalLoop=1;jettySize=auto;html=1;" parent="1" source="RIX5nBND8osH3HIVmy9M-30" target="RIX5nBND8osH3HIVmy9M-42" edge="1">
          <mxGeometry relative="1" as="geometry">
            <Array as="points">
              <mxPoint x="610" y="590" />
              <mxPoint x="760" y="590" />
            </Array>
          </mxGeometry>
        </mxCell>
        <mxCell id="RIX5nBND8osH3HIVmy9M-49" value="" style="edgeStyle=orthogonalEdgeStyle;rounded=0;orthogonalLoop=1;jettySize=auto;html=1;" parent="1" source="RIX5nBND8osH3HIVmy9M-30" target="RIX5nBND8osH3HIVmy9M-48" edge="1">
          <mxGeometry relative="1" as="geometry" />
        </mxCell>
        <mxCell id="RIX5nBND8osH3HIVmy9M-30" value="Управляющий производством" style="rounded=1;whiteSpace=wrap;html=1;" parent="1" vertex="1">
          <mxGeometry x="550" y="500" width="120" height="60" as="geometry" />
        </mxCell>
        <mxCell id="RIX5nBND8osH3HIVmy9M-48" value="Главный техник" style="rounded=1;whiteSpace=wrap;html=1;" parent="1" vertex="1">
          <mxGeometry x="550" y="620" width="120" height="60" as="geometry" />
        </mxCell>
        <mxCell id="RIX5nBND8osH3HIVmy9M-42" value="главнй инженер&lt;br&gt;" style="rounded=1;whiteSpace=wrap;html=1;" parent="1" vertex="1">
          <mxGeometry x="700" y="620" width="120" height="60" as="geometry" />
        </mxCell>
        <mxCell id="RIX5nBND8osH3HIVmy9M-40" value="главный агроном" style="rounded=1;whiteSpace=wrap;html=1;" parent="1" vertex="1">
          <mxGeometry x="420" y="620" width="120" height="60" as="geometry" />
        </mxCell>
        <mxCell id="RIX5nBND8osH3HIVmy9M-22" style="edgeStyle=orthogonalEdgeStyle;rounded=0;orthogonalLoop=1;jettySize=auto;html=1;" parent="1" source="RIX5nBND8osH3HIVmy9M-17" target="RIX5nBND8osH3HIVmy9M-21" edge="1">
          <mxGeometry relative="1" as="geometry" />
        </mxCell>
        <mxCell id="RIX5nBND8osH3HIVmy9M-24" style="edgeStyle=orthogonalEdgeStyle;rounded=0;orthogonalLoop=1;jettySize=auto;html=1;" parent="1" source="RIX5nBND8osH3HIVmy9M-17" target="RIX5nBND8osH3HIVmy9M-23" edge="1">
          <mxGeometry relative="1" as="geometry" />
        </mxCell>
        <mxCell id="RIX5nBND8osH3HIVmy9M-17" value="Финансовый директор" style="rounded=1;whiteSpace=wrap;html=1;" parent="1" vertex="1">
          <mxGeometry x="270" y="370" width="120" height="60" as="geometry" />
        </mxCell>
        <mxCell id="RIX5nBND8osH3HIVmy9M-9" value="" style="edgeStyle=orthogonalEdgeStyle;rounded=0;orthogonalLoop=1;jettySize=auto;html=1;" parent="1" source="RIX5nBND8osH3HIVmy9M-4" target="RIX5nBND8osH3HIVmy9M-8" edge="1">
          <mxGeometry relative="1" as="geometry" />
        </mxCell>
        <mxCell id="RIX5nBND8osH3HIVmy9M-15" value="" style="edgeStyle=orthogonalEdgeStyle;rounded=0;orthogonalLoop=1;jettySize=auto;html=1;" parent="1" source="RIX5nBND8osH3HIVmy9M-4" target="RIX5nBND8osH3HIVmy9M-14" edge="1">
          <mxGeometry relative="1" as="geometry" />
        </mxCell>
        <mxCell id="RIX5nBND8osH3HIVmy9M-27" value="" style="edgeStyle=orthogonalEdgeStyle;rounded=0;orthogonalLoop=1;jettySize=auto;html=1;" parent="1" source="RIX5nBND8osH3HIVmy9M-4" target="RIX5nBND8osH3HIVmy9M-26" edge="1">
          <mxGeometry relative="1" as="geometry" />
        </mxCell>
        <mxCell id="RIX5nBND8osH3HIVmy9M-4" value="Коммерческий директор" style="rounded=1;whiteSpace=wrap;html=1;" parent="1" vertex="1">
          <mxGeometry x="-50" y="370" width="120" height="60" as="geometry" />
        </mxCell>
        <mxCell id="RIX5nBND8osH3HIVmy9M-26" value="Управляющий отделом продаж" style="rounded=1;whiteSpace=wrap;html=1;" parent="1" vertex="1">
          <mxGeometry x="90" y="500" width="120" height="60" as="geometry" />
        </mxCell>
        <mxCell id="RIX5nBND8osH3HIVmy9M-8" value="Управляющий отделом маркетинга" style="rounded=1;whiteSpace=wrap;html=1;" parent="1" vertex="1">
          <mxGeometry x="-190" y="500" width="120" height="60" as="geometry" />
        </mxCell>
        <mxCell id="RIX5nBND8osH3HIVmy9M-14" value="Управляющий отделом закупок" style="rounded=1;whiteSpace=wrap;html=1;" parent="1" vertex="1">
          <mxGeometry x="-50" y="500" width="120" height="60" as="geometry" />
        </mxCell>
        <mxCell id="RIX5nBND8osH3HIVmy9M-16" value="" style="edgeStyle=orthogonalEdgeStyle;rounded=0;orthogonalLoop=1;jettySize=auto;html=1;" parent="1" source="RIX5nBND8osH3HIVmy9M-4" target="RIX5nBND8osH3HIVmy9M-14" edge="1">
          <mxGeometry relative="1" as="geometry">
            <mxPoint x="70" y="400" as="sourcePoint" />
            <mxPoint x="380" y="580" as="targetPoint" />
          </mxGeometry>
        </mxCell>
        <mxCell id="RIX5nBND8osH3HIVmy9M-21" value="главный бухгалтер" style="rounded=1;whiteSpace=wrap;html=1;" parent="1" vertex="1">
          <mxGeometry x="270" y="500" width="120" height="60" as="geometry" />
        </mxCell>
        <mxCell id="RIX5nBND8osH3HIVmy9M-23" value="Управляющий отделом аналитики" style="rounded=1;whiteSpace=wrap;html=1;" parent="1" vertex="1">
          <mxGeometry x="410" y="500" width="120" height="60" as="geometry" />
        </mxCell>
      </root>
    </mxGraphModel>
  </diagram>
</mxfile>
